<svg xmlns="http://www.w3.org/2000/svg" version="1.1" xmlns:xlink="http://www.w3.org/1999/xlink" width="168" height="80"><svg viewBox="0 0 168 80" fill="none" xmlns="http://www.w3.org/2000/svg" class="">
<path d="M107.309 77.3849L139.231 79.0777L118.917 53.9276L167.283 56.3459L157.368 44.0126C150.597 35.5487 140.44 30.4703 129.799 29.9866L97.8782 28.2938L118.192 53.4439L69.8262 51.0256L79.7411 63.3588C86.5123 71.581 96.4272 76.6594 107.309 77.3849Z" fill="currentColor"></path>
<path d="M37.9052 49.091L69.8264 50.7838L49.5129 25.6337L97.8785 28.052L87.9635 15.7188C81.1923 7.25483 71.0356 2.17644 60.3952 1.69279L28.4739 0L48.7874 25.1501L0.421875 22.7318L10.3368 35.065C17.108 43.529 27.2648 48.6074 37.9052 49.091Z" fill="currentColor"></path>
</svg><style>@media (prefers-color-scheme: light) { :root { filter: none; } }
</style></svg>